<?xml version="1.0" encoding="utf-8"?>
<!-- Generator: Adobe Illustrator 19.0.0, SVG Export Plug-In . SVG Version: 6.00 Build 0)  -->
<svg version="1.1" id="Calque_1" xmlns="http://www.w3.org/2000/svg" xmlns:xlink="http://www.w3.org/1999/xlink" x="0px" y="0px"
	 viewBox="0 0 389.8 112.9" style="enable-background:new 0 0 389.8 112.9;" xml:space="preserve">
<style type="text/css">
	.st0{fill:none;stroke:#777F9B;stroke-width:3.7983;stroke-linecap:round;stroke-linejoin:round;stroke-miterlimit:10;}
	.st1{fill:url(#SVGID_1_);}
	.st2{fill:#83BA3A;}
	.st3{fill:#F19600;}
	.st4{fill:#3E4255;}
</style>
<g>
	<path class="st0" d="M45.2,68.8"/>
	<linearGradient id="SVGID_1_" gradientUnits="userSpaceOnUse" x1="70.2806" y1="-3.1641" x2="16.5181" y2="89.9553">
		<stop  offset="0" style="stop-color:#F19600"/>
		<stop  offset="1" style="stop-color:#F1CC00"/>
	</linearGradient>
	<path class="st1" d="M86.8,33.7V15.1C86.8,6.8,80,0,71.7,0H27.7H15.1C6.8,0,0,6.8,0,15.1v14.1v42.6c0,3.7,1.4,7.1,3.6,9.7
		c2.8,3.3,6.9,5.3,11.5,5.3h14.3h42.3c8.3,0,15.1-6.8,15.1-15.1V53.1h-7.9v18.7c0,4-3.2,7.2-7.2,7.2H31.9H15.1
		c-2.4,0-4.5-1.2-5.8-2.9c-0.9-1.2-1.4-2.7-1.4-4.3v-40V15.1c0-4,3.2-7.2,7.2-7.2h15.4h41.2c4,0,7.2,3.2,7.2,7.2v18.7H86.8z"/>
	<g>
		<g>
			<path class="st2" d="M116.2,109.4V87.1c0-1.2,0.3-2,0.8-2.6c0.5-0.6,1.2-0.9,2-0.9c0.9,0,1.6,0.3,2.1,0.9
				c0.5,0.6,0.8,1.4,0.8,2.6v22.3c0,1.2-0.3,2-0.8,2.6c-0.5,0.6-1.2,0.9-2.1,0.9c-0.8,0-1.5-0.3-2-0.9
				C116.5,111.4,116.2,110.5,116.2,109.4z"/>
			<path class="st2" d="M142.7,87.1l11,16.7V86.9c0-1.1,0.2-1.9,0.7-2.5c0.5-0.5,1.1-0.8,1.9-0.8c0.8,0,1.5,0.3,1.9,0.8
				c0.5,0.5,0.7,1.4,0.7,2.5v22.2c0,2.5-1,3.7-3.1,3.7c-0.5,0-1-0.1-1.4-0.2c-0.4-0.1-0.8-0.4-1.2-0.7c-0.4-0.3-0.7-0.7-1-1.1
				c-0.3-0.4-0.6-0.9-0.9-1.3L140.7,93v16.6c0,1.1-0.3,1.9-0.8,2.4c-0.5,0.6-1.1,0.8-1.9,0.8c-0.8,0-1.5-0.3-1.9-0.8
				c-0.5-0.6-0.7-1.4-0.7-2.4V87.8c0-0.9,0.1-1.7,0.3-2.2c0.2-0.6,0.6-1.1,1.2-1.4c0.6-0.4,1.2-0.5,1.8-0.5c0.5,0,1,0.1,1.3,0.3
				c0.4,0.2,0.7,0.4,1,0.7c0.3,0.3,0.6,0.6,0.8,1.1C142.1,86.1,142.4,86.6,142.7,87.1z"/>
			<path class="st2" d="M194.3,103.5c0,0.9-0.2,1.9-0.7,2.9c-0.4,1-1.1,2.1-2.1,3.1c-1,1-2.2,1.8-3.6,2.5c-1.5,0.6-3.2,0.9-5.2,0.9
				c-1.5,0-2.8-0.1-4.1-0.4c-1.2-0.3-2.3-0.7-3.3-1.3c-1-0.6-1.9-1.4-2.7-2.4c-0.7-0.9-1.4-1.9-1.9-3c-0.5-1.1-0.9-2.3-1.2-3.5
				c-0.3-1.2-0.4-2.6-0.4-4c0-2.3,0.3-4.3,1-6.1c0.7-1.8,1.6-3.3,2.8-4.6c1.2-1.3,2.7-2.3,4.3-2.9c1.7-0.7,3.4-1,5.3-1
				c2.3,0,4.3,0.5,6.1,1.4c1.8,0.9,3.2,2,4.1,3.4c1,1.3,1.4,2.6,1.4,3.8c0,0.7-0.2,1.2-0.7,1.7c-0.5,0.5-1,0.8-1.7,0.8
				c-0.7,0-1.3-0.2-1.6-0.5c-0.4-0.3-0.8-0.9-1.2-1.8c-0.7-1.4-1.6-2.4-2.6-3.1c-1-0.7-2.3-1-3.7-1c-2.4,0-4.2,0.9-5.6,2.7
				c-1.4,1.8-2.1,4.3-2.1,7.6c0,2.2,0.3,4,0.9,5.5c0.6,1.5,1.5,2.5,2.6,3.3c1.1,0.7,2.5,1.1,4,1.1c1.6,0,3-0.4,4.2-1.2
				c1.1-0.8,2-2,2.6-3.6c0.2-0.7,0.5-1.4,0.9-1.8c0.4-0.5,0.9-0.7,1.7-0.7c0.7,0,1.3,0.2,1.8,0.7C194,102.2,194.3,102.8,194.3,103.5
				z"/>
			<path class="st2" d="M205.4,100.7V87.1c0-1.2,0.3-2,0.8-2.6c0.5-0.6,1.2-0.9,2.1-0.9c0.9,0,1.6,0.3,2.1,0.9
				c0.5,0.6,0.8,1.4,0.8,2.6V101c0,1.6,0.2,2.9,0.5,4c0.4,1.1,1,1.9,1.9,2.5c0.9,0.6,2.2,0.9,3.8,0.9c2.2,0,3.8-0.6,4.7-1.8
				c0.9-1.2,1.4-3,1.4-5.4v-14c0-1.2,0.3-2,0.8-2.6c0.5-0.6,1.2-0.9,2.1-0.9c0.9,0,1.6,0.3,2.1,0.9c0.5,0.6,0.8,1.4,0.8,2.6v13.6
				c0,2.2-0.2,4.1-0.6,5.5c-0.4,1.5-1.2,2.8-2.4,3.9c-1,1-2.2,1.6-3.6,2.1c-1.4,0.4-3,0.7-4.8,0.7c-2.2,0-4-0.2-5.6-0.7
				c-1.6-0.5-2.8-1.2-3.8-2.2c-1-1-1.7-2.2-2.2-3.8C205.6,104.7,205.4,102.8,205.4,100.7z"/>
			<path class="st2" d="M253.4,112.4h-8.6c-1.2,0-2.1-0.3-2.7-0.8c-0.5-0.6-0.8-1.5-0.8-2.7V87.6c0-1.2,0.3-2.1,0.8-2.7
				c0.5-0.5,1.4-0.8,2.7-0.8h9.2c1.3,0,2.5,0.1,3.5,0.3s1.9,0.5,2.7,1c0.7,0.4,1.3,0.9,1.8,1.5c0.5,0.6,0.9,1.3,1.2,2
				c0.3,0.7,0.4,1.5,0.4,2.3c0,2.8-1.4,4.9-4.2,6.2c3.7,1.2,5.6,3.5,5.6,6.9c0,1.6-0.4,3-1.2,4.3c-0.8,1.3-1.9,2.2-3.3,2.8
				c-0.9,0.4-1.9,0.6-3,0.8C256.2,112.3,254.9,112.4,253.4,112.4z M247,88.4v7.3h5.2c1.4,0,2.5-0.1,3.3-0.4c0.8-0.3,1.4-0.8,1.8-1.5
				c0.3-0.5,0.5-1.1,0.5-1.8c0-1.4-0.5-2.4-1.5-2.8c-1-0.5-2.6-0.7-4.6-0.7H247z M252.9,99.8h-6v8.3h6.2c3.9,0,5.8-1.4,5.8-4.2
				c0-1.4-0.5-2.5-1.5-3.1C256.4,100.2,254.9,99.8,252.9,99.8z"/>
			<path class="st2" d="M293.2,109.2l-1.4-3.5h-11.5l-1.3,3.6c-0.5,1.4-1,2.4-1.4,2.9c-0.4,0.5-1,0.7-1.8,0.7
				c-0.7,0-1.4-0.3-1.9-0.8c-0.6-0.5-0.8-1.1-0.8-1.8c0-0.4,0.1-0.8,0.2-1.2c0.1-0.4,0.3-1,0.6-1.7l7.2-18.4
				c0.2-0.5,0.5-1.2,0.7-1.9c0.3-0.7,0.6-1.4,0.9-1.8c0.3-0.5,0.8-0.9,1.3-1.2c0.5-0.3,1.2-0.5,2-0.5c0.8,0,1.5,0.2,2,0.5
				c0.5,0.3,1,0.7,1.3,1.2c0.3,0.5,0.6,1,0.8,1.5c0.2,0.5,0.5,1.3,0.9,2.2l7.4,18.2c0.6,1.4,0.9,2.4,0.9,3c0,0.7-0.3,1.3-0.8,1.8
				c-0.5,0.5-1.2,0.8-2,0.8c-0.5,0-0.8-0.1-1.2-0.2c-0.3-0.2-0.6-0.4-0.8-0.7c-0.2-0.3-0.5-0.7-0.7-1.3
				C293.6,110.1,293.4,109.6,293.2,109.2z M281.9,101.3h8.4l-4.3-11.7L281.9,101.3z"/>
			<path class="st2" d="M323.4,88.8h-6.2v20.5c0,1.2-0.3,2.1-0.8,2.6c-0.5,0.6-1.2,0.9-2,0.9c-0.8,0-1.5-0.3-2.1-0.9
				c-0.5-0.6-0.8-1.5-0.8-2.6V88.8h-6.3c-1,0-1.7-0.2-2.2-0.6c-0.5-0.4-0.7-1-0.7-1.7c0-0.7,0.2-1.3,0.7-1.7
				c0.5-0.4,1.2-0.6,2.2-0.6h18.2c1,0,1.7,0.2,2.2,0.7c0.5,0.4,0.7,1,0.7,1.7c0,0.7-0.2,1.3-0.7,1.7
				C325.1,88.6,324.3,88.8,323.4,88.8z"/>
			<path class="st2" d="M344.5,83.6c2.9,0,5.4,0.6,7.6,1.8c2.1,1.2,3.7,2.9,4.8,5.1c1.1,2.2,1.6,4.8,1.6,7.7c0,2.2-0.3,4.2-0.9,6
				c-0.6,1.8-1.5,3.3-2.7,4.6c-1.2,1.3-2.6,2.3-4.4,3c-1.7,0.7-3.7,1-5.9,1c-2.2,0-4.2-0.4-5.9-1.1c-1.7-0.7-3.2-1.7-4.4-3
				c-1.2-1.3-2.1-2.9-2.7-4.7c-0.6-1.8-0.9-3.8-0.9-5.9c0-2.2,0.3-4.2,0.9-6c0.6-1.8,1.5-3.4,2.7-4.6c1.2-1.3,2.6-2.2,4.3-2.9
				C340.4,84,342.4,83.6,344.5,83.6z M352.7,98.2c0-2.1-0.3-3.9-1-5.4c-0.7-1.5-1.6-2.7-2.9-3.4c-1.2-0.8-2.7-1.2-4.3-1.2
				c-1.1,0-2.2,0.2-3.2,0.6c-1,0.4-1.8,1.1-2.5,1.9c-0.7,0.8-1.3,1.9-1.7,3.2c-0.4,1.3-0.6,2.7-0.6,4.3c0,1.6,0.2,3.1,0.6,4.4
				c0.4,1.3,1,2.4,1.7,3.2c0.7,0.9,1.6,1.5,2.5,1.9c1,0.4,2,0.6,3.2,0.6c1.5,0,2.8-0.4,4-1.1c1.2-0.7,2.2-1.9,2.9-3.4
				C352.3,102.3,352.7,100.4,352.7,98.2z"/>
			<path class="st2" d="M374,100.3h-2v9.1c0,1.2-0.3,2.1-0.8,2.6c-0.5,0.6-1.2,0.8-2.1,0.8c-0.9,0-1.6-0.3-2.1-0.9
				c-0.5-0.6-0.8-1.5-0.8-2.6V87.6c0-1.2,0.3-2.1,0.8-2.7c0.6-0.6,1.4-0.8,2.7-0.8h9.3c1.3,0,2.4,0.1,3.3,0.2
				c0.9,0.1,1.7,0.3,2.5,0.7c0.9,0.4,1.7,0.9,2.4,1.6c0.7,0.7,1.2,1.5,1.6,2.4c0.4,0.9,0.5,1.9,0.5,2.9c0,2.1-0.6,3.8-1.8,5.1
				c-1.2,1.3-3,2.2-5.4,2.7c1,0.5,2,1.3,2.9,2.4c0.9,1.1,1.8,2.2,2.5,3.4c0.7,1.2,1.3,2.3,1.7,3.2c0.4,1,0.6,1.6,0.6,2
				c0,0.4-0.1,0.7-0.4,1.1c-0.2,0.4-0.6,0.7-1,0.9c-0.4,0.2-0.9,0.3-1.4,0.3c-0.6,0-1.2-0.2-1.6-0.5c-0.4-0.3-0.8-0.7-1.1-1.1
				c-0.3-0.5-0.7-1.1-1.3-2l-2.3-3.8c-0.8-1.4-1.6-2.5-2.2-3.2c-0.6-0.7-1.3-1.2-2-1.5C375.9,100.4,375,100.3,374,100.3z
				 M377.3,88.4H372v7.8h5.1c1.4,0,2.5-0.1,3.5-0.4c0.9-0.2,1.7-0.6,2.2-1.2c0.5-0.6,0.7-1.4,0.7-2.4c0-0.8-0.2-1.5-0.6-2.1
				c-0.4-0.6-1-1-1.7-1.3C380.6,88.6,379.2,88.4,377.3,88.4z"/>
		</g>
	</g>
	<g>
		<path class="st3" d="M76.2,46.9c-2.4,0-4-1.1-4-3.4c0-2.3,1.6-3.4,4-3.4h13.6c2.4,0,4,1.1,4,3.4c0,2.3-1.6,3.4-4,3.4H76.2z"/>
		<path class="st4" d="M123.8,70c0,2.7-1.2,4.6-3.9,4.6c-2.7,0-3.9-1.9-3.9-4.6V20.7h-13.5c-2.5,0-4.3-1.2-4.3-3.6
			c0-2.5,1.8-3.6,4.3-3.6h34.7c2.5,0,4.3,1.2,4.3,3.6c0,2.5-1.8,3.6-4.3,3.6h-13.5V70z"/>
		<path class="st4" d="M145.9,52.4c-0.6,10.3,6.1,15.2,13.4,15.2H176c2.4,0,4,1.1,4,3.4c0,2.3-1.6,3.4-4,3.4h-17
			c-11.7,0-21.5-7.6-21.5-23.2c0-13.3,9.3-22.3,22.5-22.3c11,0,19.7,7.7,19.7,18.9c0,3.7-0.1,4.7-4.3,4.7H145.9z M172,46.4
			c-0.4-6.2-4.9-10.8-12-10.8c-8.5,0-12.6,5.1-13.7,10.8H172z"/>
		<path class="st4" d="M222.5,67.1c2.5,0,4.3,1.2,4.3,3.6c0,2.5-1.8,3.6-4.3,3.6H212c-12,0-25.4-10-25.4-26.1
			c0-10.7,7.3-18.9,18.9-18.9h15.1c2.4,0,4,1.1,4,3.4c0,2.3-1.6,3.4-4,3.4h-10.1c-11,0-15.5,4.2-15.5,12.4
			c0,11.9,8.6,18.6,19.4,18.6H222.5z"/>
		<path class="st4" d="M270.8,70c0,2.7-1,4.6-3.9,4.6c-2.9,0-3.9-1.9-3.9-4.6V48.6c0-7.9-2.6-12.5-10.1-12.5
			c-6.8,0-11.9,5.5-11.9,12.6V70c0,2.7-1,4.6-3.9,4.6c-2.9,0-3.9-1.9-3.9-4.6V17.8c0-2.7,1-4.6,3.9-4.6c2.9,0,3.9,1.9,3.9,4.6v16.6
			c3.6-4.1,8.2-5.6,13.2-5.6c10.4,0,16.6,6.9,16.6,16.6V70z"/>
	</g>
	<g>
		<g>
			<path class="st4" d="M48,19.2c0,2.7-1.3,5.1-4.2,5.1s-4.2-2.5-4.2-5.1c0-2.7,1.3-5.1,4.2-5.1S48,16.6,48,19.2z M47.7,70.1
				c0,2.7-1,4.6-3.9,4.6c-2.9,0-3.9-1.9-3.9-4.6V33.8c0-2.7,1-4.6,3.9-4.6c2.9,0,3.9,1.9,3.9,4.6V70.1z"/>
		</g>
	</g>
</g>
</svg>
